<svg width="12" height="12" viewBox="0 0 12 12" fill="none" xmlns="http://www.w3.org/2000/svg">
<path d="M0.765693 1.034C0.765872 0.759811 0.879835 0.4969 1.08255 0.303019C1.28527 0.109139 1.56016 0.000142639 1.84685 -2.79864e-05L10.5165 -2.75743e-05C10.8032 0.000143019 11.0781 0.10914 11.2808 0.30302C11.4835 0.496901 11.5975 0.75981 11.5976 1.034L11.5976 9.32572C11.5876 9.59366 11.4693 9.84744 11.2677 10.0337C11.0661 10.22 10.7968 10.3243 10.5165 10.3246C10.2361 10.3243 9.96687 10.22 9.76526 10.0337C9.56364 9.84744 9.44537 9.59366 9.43532 9.32572L9.43533 3.53127L1.84685 10.789C1.64397 10.983 1.3688 11.092 1.08188 11.092C0.794962 11.092 0.519794 10.983 0.316912 10.789C0.11403 10.5949 5.33071e-05 10.3318 5.33242e-05 10.0573C5.33413e-05 9.78294 0.11403 9.51976 0.316912 9.32572L7.90539 2.06803L1.84685 2.06803C1.56016 2.06786 1.28527 1.95886 1.08255 1.76498C0.879836 1.5711 0.765872 1.30819 0.765693 1.034Z" fill="white"/>
</svg>
